#N canvas 568 13 944 1060 12;
#X obj 92 357 *~;
#X obj 90 274 osc~;
#X obj 92 228 + 200;
#X obj 182 274 / 100;
#X obj 182 328 line~;
#X msg 182 302 \$1 100;
#X obj 94 134 metro;
#X obj 129 110 + 100;
#X obj 292 357 *~;
#X obj 301 244 osc~;
#X obj 381 168 + 200;
#X obj 382 274 / 100;
#X obj 382 328 line~;
#X msg 382 302 \$1 100;
#X obj 294 134 metro;
#X obj 329 110 + 100;
#X obj 238 785 dac~;
#X obj 52 461 f;
#X obj 52 490 + 10;
#X msg 93 434 -10;
#X obj 52 405 metro 1000;
#X obj 182 245 random 50;
#X obj 382 245 random 75;
#X obj 371 440 line;
#X obj 239 490 *~ 1;
#X msg 745 317 1;
#X msg 548 296 1 500;
#X msg 658 289 0 500;
#X obj 329 84 random 200;
#X obj 129 84 random 10;
#X obj 165 177 random 10;
#X obj 379 139 random 100;
#X obj 520 189 r Startfade @hv_event;
#X obj 705 183 r Endfade @hv_event;
#X obj 748 251 r FullLevel @hv_event;
#X obj 74 28 loadbang;
#X obj 296 614 hsl 128 15 0 127 0 0 empty empty empty -2 -8 0 10 -262144
-1 -1 0 1;
#X obj 248 688 *~;
#X obj 323 557 r vol @hv_param;
#X connect 0 0 24 0;
#X connect 1 0 0 0;
#X connect 2 0 1 0;
#X connect 3 0 5 0;
#X connect 4 0 0 1;
#X connect 5 0 4 0;
#X connect 6 0 21 0;
#X connect 6 0 29 0;
#X connect 6 0 30 0;
#X connect 7 0 6 1;
#X connect 8 0 24 0;
#X connect 9 0 8 0;
#X connect 10 0 9 0;
#X connect 10 0 9 1;
#X connect 11 0 13 0;
#X connect 12 0 8 1;
#X connect 13 0 12 0;
#X connect 14 0 22 0;
#X connect 14 0 28 0;
#X connect 14 0 31 0;
#X connect 15 0 14 1;
#X connect 17 0 18 0;
#X connect 18 0 17 1;
#X connect 19 0 17 1;
#X connect 20 0 17 0;
#X connect 21 0 3 0;
#X connect 22 0 11 0;
#X connect 23 0 24 1;
#X connect 24 0 37 0;
#X connect 25 0 23 0;
#X connect 26 0 23 0;
#X connect 27 0 23 0;
#X connect 28 0 15 0;
#X connect 29 0 7 0;
#X connect 30 0 2 0;
#X connect 31 0 10 0;
#X connect 32 0 26 0;
#X connect 33 0 27 0;
#X connect 34 0 25 0;
#X connect 35 0 14 0;
#X connect 35 0 6 0;
#X connect 35 0 20 0;
#X connect 36 0 37 1;
#X connect 37 0 16 0;
#X connect 37 0 16 1;
#X connect 38 0 36 0;
