#N canvas -8 -8 1920 1117 10;
#X obj 250 459 osc~ 132;
#X obj 83 382 phasor~ 308;
#X obj 83 268 osc~ 8.9;
#X obj 83 306 *~ 81;
#X obj 83 344 +~ 308;
#X obj 250 382 phasor~ 396;
#X obj 250 191 osc~ 2.3;
#X obj 209 229 *~;
#X obj 167 191 sig~ 1;
#X obj 292 229 osc~ 3.1;
#X obj 250 268 *~;
#X obj 250 306 *~ 95;
#X obj 250 344 +~ 396;
#X obj 167 421 *~;
#X obj 417 344 osc~ 4.9;
#X obj 501 344 osc~ 6.5;
#X obj 459 382 *~;
#X obj 543 382 osc~ 7.1;
#X obj 501 421 *~;
#X obj 334 459 *~;
#X obj 292 497 +~;
#X obj 292 535 *~ 0.5;
#X obj 459 497 noise~;
#X obj 501 459 osc~ 0.1;
#X obj 543 497 *~;
#X obj 584 459 sig~ 1;
#X obj 501 535 *~;
#X obj 397 574 +~;
#X obj 397 612 *~ 0.5;
#X obj 480 612 osc~ 6;
#X obj 438 650 *~;
#X obj 751 574 osc~ 220;
#X obj 751 459 osc~ 7;
#X obj 751 497 *~ 38;
#X obj 751 535 +~ 220;
#X obj 793 612 *~;
#X obj 835 574 sig~ 1;
#X obj 877 612 osc~ 6.4;
#X obj 835 650 *~;
#X obj 637 688 +~;
#X obj 637 726 *~ 0.5;
#X obj 704 1009 dac~;
#X obj 717 944 *~;
#X msg 806 879 1;
#X msg 851 879 0;
#X obj 766 761 r Onevent @hv_event;
#X obj 909 756 r Offevent @hv_event;
#X connect 0 0 20 0;
#X connect 1 0 13 0;
#X connect 2 0 3 0;
#X connect 3 0 4 0;
#X connect 4 0 1 0;
#X connect 5 0 13 1;
#X connect 6 0 7 1;
#X connect 7 0 10 0;
#X connect 8 0 7 0;
#X connect 9 0 10 1;
#X connect 10 0 11 0;
#X connect 11 0 12 0;
#X connect 12 0 5 0;
#X connect 13 0 19 0;
#X connect 14 0 16 0;
#X connect 15 0 16 1;
#X connect 16 0 18 0;
#X connect 17 0 18 1;
#X connect 18 0 19 1;
#X connect 19 0 20 1;
#X connect 20 0 21 0;
#X connect 21 0 27 0;
#X connect 22 0 26 0;
#X connect 23 0 24 0;
#X connect 24 0 26 1;
#X connect 25 0 24 1;
#X connect 26 0 27 1;
#X connect 27 0 28 0;
#X connect 28 0 30 0;
#X connect 29 0 30 1;
#X connect 30 0 39 0;
#X connect 31 0 35 0;
#X connect 32 0 33 0;
#X connect 33 0 34 0;
#X connect 34 0 31 0;
#X connect 35 0 38 0;
#X connect 36 0 35 1;
#X connect 37 0 38 1;
#X connect 38 0 39 1;
#X connect 39 0 40 0;
#X connect 40 0 42 0;
#X connect 42 0 41 0;
#X connect 42 0 41 1;
#X connect 43 0 42 1;
#X connect 44 0 42 1;
#X connect 45 0 43 0;
#X connect 46 0 44 0;
