#N canvas 0 0 500 500 ;
#X obj 274 478 osc~ 484;
#X obj 274 191 osc~ 9;
#X obj 549 191 osc~ 1.9;
#X obj 411 335 *~;
#X obj 686 335 osc~ 1.4;
#X obj 549 478 *~;
#X obj 411 621 *~;
#X obj 411 765 dac~;
#X connect 1 0 3 0;
#X connect 2 0 3 1;
#X connect 3 0 5 0;
#X connect 4 0 5 1;
#X connect 0 0 6 0;
#X connect 5 0 6 1;
#X connect 6 0 7 0;
#X connect 6 0 7 1;
