#N canvas 0 0 500 500 ;
#X obj 70 360 osc~ 616;
#X obj 35 191 osc~ 0.3;
#X obj 52 225 *~;
#X obj 70 191 sig~ 1;
#X obj 87 225 osc~ 9.1;
#X obj 70 259 *~;
#X obj 70 292 *~ 26;
#X obj 70 326 +~ 616;
#X obj 87 394 +~;
#X obj 105 360 sig~ 0;
#X obj 87 427 *~ 0.5;
#X obj 122 427 osc~ 6.2;
#X obj 105 461 *~;
#X obj 87 495 *~;
#X obj 70 461 sig~ 1;
#X obj 122 495 osc~ 5;
#X obj 105 529 *~;
#X obj 192 529 osc~ 396;
#X obj 175 394 osc~ 4.3;
#X obj 192 360 osc~ 2;
#X obj 227 360 osc~ 7;
#X obj 209 394 *~;
#X obj 192 427 *~;
#X obj 192 461 *~ 98;
#X obj 192 495 +~ 396;
#X obj 148 562 +~;
#X obj 148 596 *~ 0.5;
#X obj 262 529 osc~ 0;
#X obj 279 562 *~;
#X obj 297 529 sig~ 1;
#X obj 367 529 osc~ 5.9;
#X obj 384 562 *~;
#X obj 401 529 sig~ 1;
#X obj 332 596 *~;
#X obj 240 630 *~;
#X obj 471 461 osc~ 396;
#X obj 506 461 osc~ 3.7;
#X obj 489 495 *~;
#X obj 471 529 *~;
#X obj 454 495 sig~ 1;
#X obj 506 529 osc~ 4.7;
#X obj 489 562 *~;
#X obj 576 461 osc~ 88;
#X obj 576 292 osc~ 7.3;
#X obj 559 326 *~;
#X obj 541 292 sig~ 1;
#X obj 576 360 *~;
#X obj 593 326 sig~ 1;
#X obj 576 394 *~ 25;
#X obj 576 427 +~ 88;
#X obj 593 495 +~;
#X obj 611 461 sig~ 0;
#X obj 593 529 *~ 0.5;
#X obj 716 461 osc~ 0.6;
#X obj 698 495 *~;
#X obj 681 461 sig~ 1;
#X obj 733 495 osc~ 8.7;
#X obj 716 529 *~;
#X obj 655 562 *~;
#X obj 572 596 *~;
#X obj 785 529 osc~ 4.2;
#X obj 820 529 osc~ 0.8;
#X obj 803 562 *~;
#X obj 925 529 osc~ 5.6;
#X obj 908 562 *~;
#X obj 890 529 sig~ 1;
#X obj 855 596 *~;
#X obj 713 630 *~;
#X obj 477 663 +~;
#X obj 477 697 *~ 0.5;
#X obj 512 697 osc~ 9.3;
#X obj 494 731 *~;
#X obj 494 765 dac~;
#X connect 1 0 2 0;
#X connect 3 0 2 1;
#X connect 2 0 5 0;
#X connect 4 0 5 1;
#X connect 5 0 6 0;
#X connect 6 0 7 0;
#X connect 7 0 0 0;
#X connect 0 0 8 0;
#X connect 9 0 8 1;
#X connect 8 0 10 0;
#X connect 10 0 12 0;
#X connect 11 0 12 1;
#X connect 14 0 13 0;
#X connect 12 0 13 1;
#X connect 13 0 16 0;
#X connect 15 0 16 1;
#X connect 19 0 21 0;
#X connect 20 0 21 1;
#X connect 18 0 22 0;
#X connect 21 0 22 1;
#X connect 22 0 23 0;
#X connect 23 0 24 0;
#X connect 24 0 17 0;
#X connect 16 0 25 0;
#X connect 17 0 25 1;
#X connect 25 0 26 0;
#X connect 27 0 28 0;
#X connect 29 0 28 1;
#X connect 30 0 31 0;
#X connect 32 0 31 1;
#X connect 28 0 33 0;
#X connect 31 0 33 1;
#X connect 26 0 34 0;
#X connect 33 0 34 1;
#X connect 35 0 37 0;
#X connect 36 0 37 1;
#X connect 39 0 38 0;
#X connect 37 0 38 1;
#X connect 38 0 41 0;
#X connect 40 0 41 1;
#X connect 45 0 44 0;
#X connect 43 0 44 1;
#X connect 44 0 46 0;
#X connect 47 0 46 1;
#X connect 46 0 48 0;
#X connect 48 0 49 0;
#X connect 49 0 42 0;
#X connect 42 0 50 0;
#X connect 51 0 50 1;
#X connect 50 0 52 0;
#X connect 55 0 54 0;
#X connect 53 0 54 1;
#X connect 54 0 57 0;
#X connect 56 0 57 1;
#X connect 52 0 58 0;
#X connect 57 0 58 1;
#X connect 41 0 59 0;
#X connect 58 0 59 1;
#X connect 60 0 62 0;
#X connect 61 0 62 1;
#X connect 65 0 64 0;
#X connect 63 0 64 1;
#X connect 62 0 66 0;
#X connect 64 0 66 1;
#X connect 59 0 67 0;
#X connect 66 0 67 1;
#X connect 34 0 68 0;
#X connect 67 0 68 1;
#X connect 68 0 69 0;
#X connect 69 0 71 0;
#X connect 70 0 71 1;
#X connect 71 0 72 0;
#X connect 71 0 72 1;