#N canvas 0 0 500 500 ;
#X obj 97 249 osc~ 572;
#X obj 146 191 osc~ 352;
#X obj 243 191 osc~ 1.5;
#X obj 194 249 *~;
#X obj 146 306 +~;
#X obj 146 363 *~ 0.5;
#X obj 389 249 osc~ 0.1;
#X obj 437 306 *~;
#X obj 486 249 sig~ 1;
#X obj 535 306 osc~ 4.3;
#X obj 486 363 *~;
#X obj 316 421 *~;
#X obj 681 363 osc~ 484;
#X obj 826 306 osc~ 0.3;
#X obj 778 363 *~;
#X obj 729 306 sig~ 1;
#X obj 729 421 *~;
#X obj 523 478 +~;
#X obj 523 535 *~ 0.5;
#X obj 620 535 osc~ 616;
#X obj 571 593 +~;
#X obj 571 650 *~ 0.5;
#X obj 766 593 osc~ 0.7;
#X obj 863 593 osc~ 2.4;
#X obj 814 650 *~;
#X obj 693 707 *~;
#X obj 693 765 dac~;
#X connect 1 0 3 0;
#X connect 2 0 3 1;
#X connect 0 0 4 0;
#X connect 3 0 4 1;
#X connect 4 0 5 0;
#X connect 6 0 7 0;
#X connect 8 0 7 1;
#X connect 7 0 10 0;
#X connect 9 0 10 1;
#X connect 5 0 11 0;
#X connect 10 0 11 1;
#X connect 15 0 14 0;
#X connect 13 0 14 1;
#X connect 12 0 16 0;
#X connect 14 0 16 1;
#X connect 11 0 17 0;
#X connect 16 0 17 1;
#X connect 17 0 18 0;
#X connect 18 0 20 0;
#X connect 19 0 20 1;
#X connect 20 0 21 0;
#X connect 22 0 24 0;
#X connect 23 0 24 1;
#X connect 21 0 25 0;
#X connect 24 0 25 1;
#X connect 25 0 26 0;
#X connect 25 0 26 1;
