#N canvas 0 0 500 500 ;
#X obj 480 621 osc~ 132;
#X obj 480 191 osc~ 3.4;
#X obj 480 335 *~ 59;
#X obj 480 478 +~ 132;
#X obj 480 765 dac~;
#X connect 1 0 2 0;
#X connect 2 0 3 0;
#X connect 3 0 0 0;
#X connect 0 0 4 0;
#X connect 0 0 4 1;
